<svg width="13" height="16" viewBox="0 0 13 16" fill="none" xmlns="http://www.w3.org/2000/svg">
<path d="M9.28508 3.91345C9.28508 5.89343 7.98018 7.32589 6.56397 7.32589C5.14766 7.32589 3.84277 5.89342 3.84277 3.91345C3.84277 2.84469 3.96563 1.99675 4.3418 1.42008C4.68583 0.892676 5.3064 0.500977 6.56397 0.500977C7.82154 0.500977 8.44208 0.892675 8.78609 1.42007C9.16225 1.99674 9.28508 2.84468 9.28508 3.91345Z" stroke="black"/>
<mask id="path-2-inside-1" fill="white">
<path d="M0.480126 13.7997C0.479577 13.668 0.479028 13.7626 0.480126 13.7997V13.7997Z"/>
</mask>
<path d="M1.48012 13.7955C1.47998 13.7625 1.47983 13.7402 1.47966 13.7266C1.47962 13.7233 1.47955 13.718 1.47943 13.7123C1.47938 13.7099 1.47924 13.7037 1.47896 13.6959C1.47883 13.6925 1.47851 13.6841 1.47788 13.6734C1.47757 13.6682 1.47695 13.6583 1.47589 13.6459C1.47532 13.6394 1.47262 13.6071 1.46577 13.5663C1.46343 13.5524 1.4537 13.4934 1.43002 13.4211C1.41501 13.3785 1.36451 13.2662 1.32556 13.1988C1.23403 13.0756 0.869392 12.8111 0.579027 12.737C0.243277 12.7603 -0.212395 13.0101 -0.334832 13.1517C-0.385189 13.2298 -0.448596 13.3599 -0.466625 13.4084C-0.49409 13.4888 -0.504671 13.5547 -0.506907 13.5682C-0.51408 13.6114 -0.51671 13.6457 -0.517218 13.652C-0.518243 13.6648 -0.51881 13.675 -0.519086 13.6803C-0.520012 13.6981 -0.520249 13.7126 -0.520267 13.7135C-0.52042 13.7214 -0.520461 13.7281 -0.520475 13.7306C-0.520577 13.7482 -0.520476 13.7941 -0.519438 13.8292L1.47969 13.7702C1.47975 13.7721 1.47964 13.768 1.47955 13.7577C1.47948 13.7483 1.47949 13.742 1.47949 13.7422C1.47949 13.7425 1.47948 13.7434 1.47947 13.7447C1.47946 13.7458 1.47943 13.7486 1.47935 13.7525C1.47935 13.7527 1.47913 13.7666 1.47822 13.7841C1.47795 13.7893 1.47739 13.7994 1.47637 13.8121C1.47586 13.8184 1.47324 13.8527 1.46607 13.8959C1.46384 13.9093 1.45326 13.9752 1.42579 14.0556C1.40777 14.1041 1.34436 14.2342 1.294 14.3123C1.17157 14.4539 0.715897 14.7037 0.380149 14.727C0.0897852 14.6529 -0.274853 14.3884 -0.366377 14.2652C-0.405325 14.1977 -0.455826 14.0855 -0.47084 14.0429C-0.494509 13.9706 -0.504238 13.9117 -0.506576 13.8977C-0.513422 13.857 -0.51612 13.8247 -0.51668 13.8182C-0.517744 13.8059 -0.518357 13.7961 -0.518659 13.791C-0.519277 13.7805 -0.519587 13.7723 -0.519702 13.7692C-0.519964 13.7621 -0.520079 13.7567 -0.520106 13.7554C-0.520182 13.7519 -0.5202 13.7499 -0.520185 13.7512C-0.520128 13.7558 -0.520003 13.771 -0.519866 13.8039L1.48012 13.7955Z" fill="black" mask="url(#path-2-inside-1)"/>
<mask id="path-4-inside-2" fill="white">
<path d="M12.6484 13.9031C12.6502 13.8671 12.649 13.6529 12.6484 13.9031V13.9031Z"/>
</mask>
<path d="M13.6473 13.9512C13.6497 13.9008 13.6494 13.8086 13.6493 13.7904C13.6493 13.786 13.6492 13.7805 13.6492 13.7749C13.6491 13.7723 13.6491 13.7678 13.6489 13.7625C13.6489 13.7599 13.6488 13.7554 13.6486 13.7498C13.6485 13.7466 13.648 13.7331 13.6469 13.7159C13.6464 13.7097 13.6449 13.6864 13.6411 13.6567C13.6395 13.6443 13.6348 13.6082 13.6245 13.5629C13.6187 13.5385 13.601 13.4768 13.5883 13.4399C13.5629 13.3772 13.4614 13.2002 13.3743 13.0949C13.1394 12.9119 12.4794 12.798 12.1224 12.9334C11.9593 13.0595 11.7753 13.2972 11.733 13.3826C11.6814 13.5005 11.6655 13.6034 11.6647 13.6076C11.6558 13.6573 11.6528 13.6974 11.6525 13.7016C11.6506 13.7238 11.65 13.7414 11.6499 13.7442C11.6496 13.7505 11.6495 13.7557 11.6494 13.7585C11.6491 13.7682 11.649 13.7773 11.649 13.7812C11.6488 13.8009 11.6486 13.8387 11.6484 13.9007L13.6484 13.9055C13.6486 13.8424 13.6488 13.8132 13.6489 13.8037C13.6489 13.8004 13.6489 13.8046 13.6487 13.8115C13.6486 13.8136 13.6485 13.8181 13.6483 13.824C13.6482 13.8263 13.6475 13.8436 13.6457 13.8656C13.6454 13.8697 13.6424 13.9097 13.6335 13.9594C13.6328 13.9636 13.6168 14.0665 13.5653 14.1843C13.523 14.2697 13.339 14.5074 13.1759 14.6335C12.8189 14.7689 12.1588 14.655 11.924 14.472C11.8368 14.3667 11.7354 14.1897 11.71 14.127C11.6973 14.0901 11.6796 14.0284 11.6738 14.0041C11.6635 13.9587 11.6588 13.9226 11.6572 13.9103C11.6534 13.8807 11.6519 13.8575 11.6515 13.8514C11.6488 13.8119 11.6492 13.771 11.6493 13.8011C11.6495 13.8364 11.6489 13.8694 11.6496 13.855L13.6473 13.9512Z" fill="black" mask="url(#path-4-inside-2)"/>
<path d="M12.6415 13.6411C12.6402 13.5618 12.6388 13.4838 12.6371 13.4069C12.5074 13.4094 12.4024 13.4631 12.336 13.5161C12.2757 13.5642 12.2394 13.6161 12.2202 13.6477L12.6415 13.6411ZM12.6415 13.6411L12.2202 13.6478M12.6415 13.6411L12.2202 13.6478M8.49003 8.66429C10.1924 8.99384 11.0157 9.39899 11.4693 10.0209C11.9625 10.6972 12.1113 11.7429 12.1415 13.649C12.1415 13.649 12.1415 13.649 12.1415 13.649L12.2202 13.6478M8.49003 8.66429L12.1614 14.0233C12.1596 14.0158 12.1584 14.0097 12.1576 14.0057C12.1512 13.9744 12.1492 13.9477 12.1491 13.946L12.1491 13.9459C12.1488 13.9422 12.1485 13.9382 12.1482 13.9343C12.1483 13.9224 12.1483 13.9113 12.1483 13.9009L12.6472 13.902C12.6472 13.902 12.6472 13.902 12.6472 13.902C12.647 13.8994 12.6468 13.8957 12.6466 13.8908L12.1488 13.8786L12.1488 13.8786C12.1489 13.8773 12.1492 13.8708 12.15 13.862C12.1503 13.8579 12.1512 13.8482 12.153 13.8359C12.1531 13.8346 12.1584 13.791 12.1767 13.7396C12.1822 13.7239 12.1929 13.6963 12.2107 13.6641C12.2132 13.6596 12.2164 13.6541 12.2202 13.6478M8.49003 8.66429C8.40541 8.73496 8.29682 8.81491 8.16285 8.89374C7.80553 9.10401 7.27775 9.3002 6.56452 9.3002C5.85128 9.3002 5.32349 9.10401 4.96615 8.89375C4.83217 8.81491 4.72356 8.73496 4.63893 8.66429C2.95608 8.99006 2.13243 9.38969 1.67571 9.99929C1.18188 10.6584 1.02428 11.6752 0.989615 13.5281L0.989615 13.5282C0.986814 13.6773 0.984677 13.7611 0.982955 13.8042C0.982526 13.8149 0.981982 13.8268 0.981231 13.838C0.98109 13.8401 0.98089 13.843 0.980614 13.8465L8.49003 8.66429ZM0.980259 13.7846L0.482993 13.7927C0.484493 13.7599 0.486655 13.681 0.489703 13.5188C0.491008 13.449 0.492477 13.3802 0.49413 13.3123C0.636969 13.3157 0.743798 13.379 0.805342 13.4313C0.841837 13.4624 0.870033 13.4957 0.891431 13.5263C0.891438 13.5263 0.891446 13.5263 0.891453 13.5263C0.929858 13.5813 0.946357 13.6277 0.94964 13.6369C0.949839 13.6375 0.949989 13.6379 0.950093 13.6382C0.961652 13.6693 0.96747 13.6948 0.96982 13.7056C0.974931 13.7292 0.977101 13.7477 0.977733 13.7532C0.978664 13.7612 0.979184 13.7675 0.979438 13.7708C0.980255 13.7813 0.98036 13.7881 0.980259 13.7846Z" stroke="black"/>
</svg>
