<?xml version="1.0"?>
<svg xmlns="http://www.w3.org/2000/svg" xmlns:xlink="http://www.w3.org/1999/xlink" xmlns:svgjs="http://svgjs.com/svgjs" version="1.1" width="512" height="512" x="0" y="0" viewBox="0 0 64 64" style="enable-background:new 0 0 512 512" xml:space="preserve" class=""><g><g xmlns="http://www.w3.org/2000/svg" id="Layer_8" data-name="Layer 8"><path d="M63.707,35.293l-3.556-3.556a17.024,17.024,0,0,0-2.405-4.724A21.333,21.333,0,0,0,63,13.072V9a1,1,0,0,0-1-1,3,3,0,0,1-3-3,1,1,0,0,0-1-1H40a1,1,0,0,0-1,1,3,3,0,0,1-3,3,1,1,0,0,0-1,1v4.072a21.065,21.065,0,0,0,1.363,7.408c-.809.1-1.615.213-2.41.346l-.059.007A85.072,85.072,0,0,1,19.83,22a13.674,13.674,0,0,0-7.19,2.042q-.418.261-.8.538A5.581,5.581,0,0,0,8.18,22.44l-3.04-.43a1,1,0,0,0-1.035,1.437l3.277,6.562L5.255,34.254,1.553,36.1a1,1,0,0,0-.543,1.037l1,7a1,1,0,0,0,.882.852l1.827.2a28.833,28.833,0,0,1,12.422,4.437l1.077,3.761A20.663,20.663,0,0,1,19,59a1,1,0,0,0,1,1h4a1,1,0,0,0,.948-.684L27.721,51H27.8a104.2,104.2,0,0,0,19.6-1.863l1.1,2.576A18.44,18.44,0,0,1,50,59a1,1,0,0,0,1,1h5a1,1,0,0,0,1-1,32.381,32.381,0,0,1,1.426-9.487l1.35-4.4A27.538,27.538,0,0,0,61,37a16.764,16.764,0,0,0-.092-1.678l1.385,1.385ZM37,9.9A5.013,5.013,0,0,0,40.9,6H57.1A5.013,5.013,0,0,0,61,9.9v3.173A19.4,19.4,0,0,1,49,30.924,19.4,19.4,0,0,1,37,13.072ZM57.864,44.526l-1.35,4.4A34.377,34.377,0,0,0,55.015,58H51.976a20.427,20.427,0,0,0-1.637-7.073l-1.42-3.32c-.008-.019-.023-.032-.032-.05l.008,0a8.522,8.522,0,0,1-.9-3.789V42H46v1.764a10.533,10.533,0,0,0,.6,3.48A102.2,102.2,0,0,1,28,49V45H26v4.839L23.279,58h-2.3a22.771,22.771,0,0,0-.837-5.155l-1.18-4.12a1,1,0,0,0-.406-.557A30.828,30.828,0,0,0,4.938,43.206L3.88,43.09l-.788-5.518L6.447,35.9a1.009,1.009,0,0,0,.448-.447l2.5-4.99a1.006,1.006,0,0,0,0-.895l-2.65-5.306L7.9,24.42a3.574,3.574,0,0,1,2.763,2.063,1,1,0,0,0,1.571.338,11.162,11.162,0,0,1,1.465-1.08A11.673,11.673,0,0,1,19.83,24a87.084,87.084,0,0,0,14.347-1.186.577.577,0,0,0,.058-.008c.969-.162,1.957-.3,2.944-.409A21.365,21.365,0,0,0,48.641,32.934a1.009,1.009,0,0,0,.718,0,21.1,21.1,0,0,0,6.991-4.448A14.851,14.851,0,0,1,59,37,25.525,25.525,0,0,1,57.864,44.526Z" fill="#000000" data-original="#000000" style="" class=""/><path d="M32,25A10,10,0,1,0,42,35,10.011,10.011,0,0,0,32,25Zm0,18a8,8,0,1,1,8-8A8.009,8.009,0,0,1,32,43Z" fill="#000000" data-original="#000000" style="" class=""/><path d="M32,32a1,1,0,0,1,1,1h2a3,3,0,0,0-2-2.816V29H31v1.184A2.993,2.993,0,0,0,32,36a1,1,0,1,1-1,1H29a3,3,0,0,0,2,2.816V41h2V39.816A2.993,2.993,0,0,0,32,34a1,1,0,0,1,0-2Z" fill="#000000" data-original="#000000" style="" class=""/><path d="M49,26a7.983,7.983,0,0,0,6.817-12.165l1.93-2.17-1.494-1.33-1.7,1.916A8,8,0,1,0,49,26Zm0-14a5.978,5.978,0,0,1,4.223,1.744l-4.266,4.8-2.25-2.25-1.414,1.414,3,3A1,1,0,0,0,49,21h.029a1,1,0,0,0,.718-.335l4.662-5.245A6,6,0,1,1,49,12Z" fill="#000000" data-original="#000000" style="" class=""/></g></g></svg>
